<?xml version="1.0" encoding="UTF-8" standalone="no"?>
<svg
   xmlns:dc="http://purl.org/dc/elements/1.1/"
   xmlns:cc="http://creativecommons.org/ns#"
   xmlns:rdf="http://www.w3.org/1999/02/22-rdf-syntax-ns#"
   xmlns:svg="http://www.w3.org/2000/svg"
   xmlns="http://www.w3.org/2000/svg"
   xmlns:sodipodi="http://sodipodi.sourceforge.net/DTD/sodipodi-0.dtd"
   xmlns:inkscape="http://www.inkscape.org/namespaces/inkscape"
   version="1.1"
   id="svg2"
   xml:space="preserve"
   width="7572.0269"
   height="5048.0132"
   viewBox="0 0 7572.0269 5048.0132"
   sodipodi:docname="404_eror_concept_illustration_vector_.eps"><metadata
     id="metadata8"><rdf:RDF><cc:Work
         rdf:about=""><dc:format>image/svg+xml</dc:format><dc:type
           rdf:resource="http://purl.org/dc/dcmitype/StillImage" /></cc:Work></rdf:RDF></metadata><defs
     id="defs6" /><sodipodi:namedview
     pagecolor="#ffffff"
     bordercolor="#666666"
     borderopacity="1"
     objecttolerance="10"
     gridtolerance="10"
     guidetolerance="10"
     inkscape:pageopacity="0"
     inkscape:pageshadow="2"
     inkscape:window-width="640"
     inkscape:window-height="480"
     id="namedview4" /><g
     id="g10"
     inkscape:groupmode="layer"
     inkscape:label="ink_ext_XXXXXX"
     transform="matrix(1.3333333,0,0,-1.3333333,0,5048.0133)"><g
       id="g12"
       transform="scale(0.1)"><path
         d="M 56790.2,0 H 0 V 37860.1 H 56790.2 V 0"
         style="fill:#ffffff;fill-opacity:1;fill-rule:nonzero;stroke:none"
         id="path14" /><path
         d="M 18267.9,5505.6 C 8620.83,4060.5 -672.422,13033.9 6775.82,23275.9 c 2959.07,4069 5583.18,5978.8 8834.88,7167.3 5607.2,2049.4 9584.3,-2292.3 14812.6,-2453.4 3108,-291.7 5785,160.1 8805.7,693.9 C 51648.8,30878.1 55214.2,18338.9 51067.5,11816.4 47413.9,6069.4 41781,8695.8 37208.4,6372.8 30043.7,2733 23611.6,6311.5 18267.9,5505.6"
         style="fill:#bcb2df;fill-opacity:1;fill-rule:nonzero;stroke:none"
         id="path16" /><path
         d="m 29089.5,29425.3 c 1780.2,-708.3 4292.2,-321.7 4871.2,1450.4 623.6,3894.8 -10520.3,2008.5 -8004.3,134.5 1052.5,-784 2228.9,-1237.9 3133.1,-1584.9"
         style="fill:#bcb2df;fill-opacity:1;fill-rule:nonzero;stroke:none"
         id="path18" /><path
         d="m 11577.3,27009.7 c 0,-1440.7 -1167.9,-2608.2 -2608.16,-2608.2 -1440.3,0 -2608.19,1167.5 -2608.19,2608.2 0,418.7 98.89,814.7 274.58,1165.3 427.82,855.3 1312.07,1442.9 2333.61,1442.9 1231.66,0 2263.66,-853.8 2537.16,-2001.8 46.4,-194.5 71,-397.8 71,-606.4"
         style="fill:#bcb2df;fill-opacity:1;fill-rule:nonzero;stroke:none"
         id="path20" /><path
         d="m 11577.3,27009.7 c 0,-1440.7 -1167.9,-2608.2 -2608.16,-2608.2 -1440.3,0 -2608.19,1167.5 -2608.19,2608.2 0,418.7 98.89,814.7 274.58,1165.3 18.84,-824.4 382.54,-2065.1 1914.49,-2562.5 1553.28,-504.3 2601.98,1278 2956.28,2003.6 46.4,-194.5 71,-397.8 71,-606.4"
         style="fill:#746abc;fill-opacity:1;fill-rule:nonzero;stroke:none"
         id="path22" /><path
         d="m 7447.7,27009.6 c -294.98,310.5 -15.53,1040.2 217.35,807.3 232.87,-232.8 77.62,-1117.8 -217.35,-807.3"
         style="fill:#746abc;fill-opacity:1;fill-rule:nonzero;stroke:none"
         id="path24" /><path
         d="m 9264.11,27009.6 c -83.18,194.1 434.69,450.3 388.12,186.3 -46.57,-263.9 -248.4,-512.3 -388.12,-186.3"
         style="fill:#746abc;fill-opacity:1;fill-rule:nonzero;stroke:none"
         id="path26" /><path
         d="m 9655.2,28391.4 c -878.58,245.6 -369.63,760.7 0,574.4 369.6,-186.3 499.8,-714.2 0,-574.4"
         style="fill:#746abc;fill-opacity:1;fill-rule:nonzero;stroke:none"
         id="path28" /><path
         d="m 8022.12,26404.2 c -201.83,714.1 15.52,1350.6 1071.22,1381.7 1055.66,31 1319.66,403.6 1133.36,776.2 -186.3,372.6 372.6,310.5 372.6,310.5 0,0 -388.2,-77.6 -217.4,-434.7 170.8,-357 -572.61,-896.5 -1126.85,-797.6 -554.25,99 -1310.56,-227 -1232.93,-1236.1"
         style="fill:#746abc;fill-opacity:1;fill-rule:nonzero;stroke:none"
         id="path30" /><path
         d="m 8301.56,27972.2 c 294.98,326 1437.85,-31.1 1681.47,279.4 0,0 -159.45,-304.5 -641.3,-217.3 -481.84,87.1 -1040.17,-62.1 -1040.17,-62.1"
         style="fill:#746abc;fill-opacity:1;fill-rule:nonzero;stroke:none"
         id="path32" /><path
         d="m 10391.9,27390 -20,26.3 c 81,61.9 304.8,376.4 438.5,564.3 43.6,61.2 79.6,111.8 101.7,141.2 l 26.4,-19.8 c -22,-29.3 -57.8,-79.6 -101.1,-140.5 -143.6,-201.7 -360.5,-506.5 -445.5,-571.5"
         style="fill:#746abc;fill-opacity:1;fill-rule:nonzero;stroke:none"
         id="path34" /><path
         d="m 7695.74,28363.5 c -68.2,233.4 1.34,463.9 195.8,649.1 328.7,312.8 939.57,435.6 1390.6,279.3 l -10.82,-31.3 c -440.47,152.6 -1036.47,33.1 -1356.98,-272 -130.92,-124.6 -269.6,-332.6 -186.85,-615.9 l -31.75,-9.2"
         style="fill:#746abc;fill-opacity:1;fill-rule:nonzero;stroke:none"
         id="path36" /><path
         d="m 7373.23,26051.6 c -604.46,682 -270.92,1912.7 -267.49,1925 l 31.85,-8.9 c -3.37,-12.1 -332.07,-1225.7 260.38,-1894.1 l -24.74,-22"
         style="fill:#746abc;fill-opacity:1;fill-rule:nonzero;stroke:none"
         id="path38" /><path
         d="m 8623.16,25239.4 c -652.97,181.4 -768.07,680.3 -860.55,1081.2 -27.65,119.9 -53.76,233.1 -91.61,325.7 l 30.62,12.5 c 38.85,-95 65.27,-209.5 93.22,-330.7 90.5,-392.4 203.14,-880.7 837.17,-1056.9 l -8.85,-31.8"
         style="fill:#746abc;fill-opacity:1;fill-rule:nonzero;stroke:none"
         id="path40" /><path
         d="m 10758.5,28907 c 148.2,74 326.7,153.7 476.9,224.1 150.7,69.4 302.4,136.8 455.6,201.5 306.8,128.6 617.3,249.9 944.6,340 82.1,22.1 165.4,41.6 251.5,56.6 86.3,14.6 174,26.6 271.3,23.6 48.7,-2 100.6,-7.6 158.4,-27.2 28.9,-10.2 60.1,-25 90.3,-49 15,-12.8 29.9,-25 42.4,-42.8 6.4,-8.4 12.5,-17 18.3,-25.7 5.1,-9.1 9.7,-18.7 14.1,-28.3 16.1,-38.3 22.8,-79.5 21.2,-113.1 0.3,-18.2 -2.5,-32.8 -4.3,-49.3 -2.9,-14.6 -5.8,-29.8 -9.6,-43.5 -15.4,-54.8 -37.1,-99.9 -60,-142.2 -46.5,-83.3 -100.1,-154.2 -155.3,-222 -55.4,-67.7 -113.3,-130.9 -172.4,-192.3 -118.4,-122.7 -241.9,-237.1 -367.7,-348.1 -251.6,-221.8 -514.3,-427.3 -781.1,-626.3 -266.9,-198.7 -538.4,-390.3 -813.7,-575.9 -551.9,-369.2 -1115.2,-720.1 -1689.9,-1050.9 -575.18,-330 -1158.21,-646.9 -1755.09,-937.8 -597.25,-289.9 -1203,-564.7 -1836.34,-783.3 -158.56,-54.3 -319,-104.8 -483.44,-147.5 -82.3,-21.2 -165.59,-40.7 -251.04,-55.8 -85.4,-15.2 -172.73,-26.9 -265.44,-29.5 -46.68,-0.8 -94.72,0.5 -146.62,8.8 -25.7,3.8 -53.06,10.3 -81.47,20.1 -13.91,4.4 -29.27,11.8 -43.64,18.2 -15.34,8.9 -29.95,16.1 -45.14,28.5 -29.8,21.8 -58.68,54.3 -75.93,93.4 -4.38,9.9 -8.42,19.9 -12.05,30 -3.06,9.9 -4.56,19.6 -6.48,29.5 -1.56,9.7 -3.66,20.1 -3.96,29.2 l 0.12,26.6 c 3.39,70 24.74,120.4 45.65,166.7 44.68,89.1 98.38,160.3 153.92,228.2 55.67,67.5 114.48,129.8 174.58,189.9 241.37,238.6 500.74,447.6 764.5,650.1 132.16,100.8 265.62,199.4 400.76,295.5 135.46,95.7 312.18,234.9 449.68,327.2 l 43.57,-163.8 c -131.86,-98.4 -262.63,-198.1 -391.94,-299.5 -129.63,-101 -258.37,-202.9 -384.77,-307.2 -252.1,-208.8 -499.82,-424.9 -719.54,-659.1 -54.28,-58.7 -106.76,-118.6 -154.67,-179.5 -47.48,-60.7 -90.79,-124.4 -118.45,-183.9 -12.64,-28.7 -20.23,-57.4 -19.62,-70.2 0.1,-1.4 0.03,-2.8 -0.21,-4.2 -0.07,-1.3 0.89,-0.9 0.84,-1.4 0.23,-0.1 -0.24,-0.7 -0.24,-0.7 0.44,0.6 0.48,1.1 0.16,1.5 -0.93,1.4 -1.65,1.5 2.05,-0.5 5.02,-4.9 30.8,-13.5 59.87,-17 29.74,-4 64.53,-4.5 100.28,-2.8 72.27,3.9 148.74,15.8 225.32,31.7 76.63,16 153.92,35 230.99,56.6 154.23,43.3 307.95,94.8 460.58,150.5 305.49,111.2 606.31,240.1 905.37,373.2 298.75,134 594.53,275.8 887.7,423.2 585.9,295.6 1164.43,607.6 1732.36,938 568.04,330.1 1129.38,671.9 1675.68,1035.5 546.8,361.9 1084.1,741.1 1582.5,1158.4 124,104.7 245,212.3 358.3,324.9 56.5,56.3 111.3,113.8 161.7,172.8 50.4,58.8 97,119.9 132.8,179.7 17.5,29.7 31.8,59.4 39.4,83.9 8.7,25.3 5.4,39.6 6.6,36.8 -0.1,-0.3 0.4,-0.4 0.8,-0.5 -0.3,-0.4 -0.3,-0.7 0,-0.7 1.6,0.1 -0.5,0.2 -0.6,1.2 -1.9,2 -8,6.1 -17.8,9.9 -20.1,7.6 -50.7,13.7 -84.3,15.7 -67.8,4.5 -145,-2.7 -221.5,-13.5 -76.9,-11.1 -154.9,-26.9 -232.8,-45.4 -312.6,-73.3 -623.5,-179.1 -930.1,-293.6 -153.4,-57.5 -306,-118 -457.8,-180.6 -152.3,-61.6 -280.9,-115.4 -431.9,-180.8 l -113.8,114.2"
         style="fill:#5c56b0;fill-opacity:1;fill-rule:nonzero;stroke:none"
         id="path42" /><path
         d="m 34145.2,9429.7 c 0,-642.7 521,-1163.6 1163.5,-1163.6 642.6,0 1163.6,520.9 1163.6,1163.6 0,186.8 -44.1,363.4 -122.5,519.8 -190.9,381.6 -585.3,643.7 -1041.1,643.7 -549.4,0 -1009.8,-380.9 -1131.8,-893 -20.7,-86.8 -31.7,-177.5 -31.7,-270.5"
         style="fill:#ffffff;fill-opacity:1;fill-rule:nonzero;stroke:none"
         id="path44" /><path
         d="m 34145.2,9429.7 c 0,-642.7 521,-1163.6 1163.5,-1163.6 642.6,0 1163.6,520.9 1163.6,1163.6 0,186.8 -44.1,363.4 -122.5,519.8 -8.4,-367.8 -170.7,-921.3 -854.1,-1143.2 -692.9,-224.9 -1160.8,570.2 -1318.8,893.9 -20.7,-86.8 -31.7,-177.5 -31.7,-270.5"
         style="fill:#746abc;fill-opacity:1;fill-rule:nonzero;stroke:none"
         id="path46" /><path
         d="m 35987.5,9429.6 c 131.6,138.5 6.9,464.1 -97,360.2 -103.9,-103.9 -34.6,-498.7 97,-360.2"
         style="fill:#746abc;fill-opacity:1;fill-rule:nonzero;stroke:none"
         id="path48" /><path
         d="m 35177.2,9429.6 c 37.1,86.6 -194,200.9 -173.2,83.1 20.8,-117.7 110.8,-228.5 173.2,-83.1"
         style="fill:#746abc;fill-opacity:1;fill-rule:nonzero;stroke:none"
         id="path50" /><path
         d="m 35002.7,10046 c 391.9,109.6 164.9,339.4 0,256.3 -164.9,-83.1 -223,-318.6 0,-256.3"
         style="fill:#746abc;fill-opacity:1;fill-rule:nonzero;stroke:none"
         id="path52" /><path
         d="m 35731.2,9159.5 c 90.1,318.6 -6.9,602.6 -477.9,616.4 -470.9,13.9 -588.6,180.1 -505.5,346.3 83.1,166.2 -166.3,138.5 -166.3,138.5 0,0 173.2,-34.6 97,-193.9 -76.2,-159.3 255.5,-400 502.7,-355.8 247.3,44.1 584.6,-101.3 550,-551.5"
         style="fill:#746abc;fill-opacity:1;fill-rule:nonzero;stroke:none"
         id="path54" /><path
         d="m 35606.6,9859 c -131.6,145.5 -641.5,-13.8 -750.2,124.7 0,0 71.2,-135.9 286.1,-97 215,38.9 464.1,-27.7 464.1,-27.7"
         style="fill:#746abc;fill-opacity:1;fill-rule:nonzero;stroke:none"
         id="path56" /><path
         d="m 34668.5,9592 c -39.1,29.8 -136.3,166.6 -200.7,257 -19.3,27.1 -35.1,49.4 -44.9,62.4 l 26.5,19.9 c 9.8,-13.2 25.9,-35.8 45.3,-63.1 59.4,-83.4 158.8,-223.1 193.9,-249.9 l -20.1,-26.3"
         style="fill:#746abc;fill-opacity:1;fill-rule:nonzero;stroke:none"
         id="path58" /><path
         d="m 35885.6,10031 -31.7,9.3 c 35.6,121.9 -24.3,211.7 -80.9,265.5 -140.7,134 -402.7,186.4 -596,119.3 l -10.9,31.3 c 204.2,70.8 480.8,15.1 629.7,-126.6 89.3,-85.1 121.2,-191.2 89.8,-298.8"
         style="fill:#746abc;fill-opacity:1;fill-rule:nonzero;stroke:none"
         id="path60" /><path
         d="m 36027.5,8996.2 -24.7,21.9 c 260.9,294.4 115.7,831.1 114.2,836.5 l 31.8,8.8 c 6.4,-22.6 151.7,-559.3 -121.3,-867.2"
         style="fill:#746abc;fill-opacity:1;fill-rule:nonzero;stroke:none"
         id="path62" /><path
         d="m 35465.5,8631.1 -8.8,31.8 c 277.6,77.2 325.1,283.1 367,464.7 12.5,54.5 24.4,105.9 42,149 l 30.6,-12.5 c -16.6,-40.6 -28.1,-90.8 -40.4,-143.9 -41.8,-181.2 -93.8,-406.8 -390.4,-489.1"
         style="fill:#746abc;fill-opacity:1;fill-rule:nonzero;stroke:none"
         id="path64" /><path
         d="m 34510.5,10276 c -66.1,33.1 -145.8,68.6 -212.8,100 -67.2,31 -134.9,61.1 -203.2,89.9 -136.8,57.4 -275.4,111.5 -421.4,151.7 -36.6,9.9 -73.8,18.6 -112.2,25.3 -38.5,6.4 -77.6,11.8 -121,10.5 -21.7,-0.9 -44.9,-3.4 -70.7,-12.2 -12.8,-4.5 -26.8,-11.1 -40.2,-21.8 -6.8,-5.7 -13.4,-11.2 -19,-19.1 -2.8,-3.7 -5.5,-7.6 -8.1,-11.5 -2.3,-4.1 -4.4,-8.3 -6.3,-12.6 -7.2,-17.1 -10.2,-35.5 -9.5,-50.5 -0.1,-8.1 1.1,-14.6 1.9,-22 1.3,-6.5 2.6,-13.3 4.3,-19.3 6.9,-24.5 16.6,-44.6 26.8,-63.5 20.7,-37.2 44.6,-68.8 69.3,-99 24.7,-30.2 50.5,-58.4 76.9,-85.8 52.8,-54.8 107.9,-105.8 164,-155.3 112.3,-99 229.4,-190.7 348.5,-279.4 119,-88.6 240.1,-174.1 363,-256.9 246.2,-164.7 497.4,-321.2 753.8,-468.8 256.6,-147.2 516.7,-288.6 783,-418.4 266.4,-129.3 536.7,-251.9 819.2,-349.4 70.7,-24.2 142.3,-46.8 215.7,-65.8 36.7,-9.5 73.8,-18.2 111.9,-24.9 38.1,-6.8 77.1,-12 118.5,-13.2 20.8,-0.3 42.2,0.3 65.4,4 11.4,1.7 23.6,4.6 36.3,8.9 6.2,2 13.1,5.3 19.5,8.2 6.8,3.9 13.3,7.1 20.1,12.6 13.3,9.8 26.2,24.3 33.9,41.7 1.9,4.4 3.7,8.9 5.4,13.4 1.3,4.4 2,8.7 2.9,13.1 0.7,4.4 1.6,9 1.7,13.1 v 11.9 c -1.5,31.2 -11.1,53.7 -20.4,74.3 -19.9,39.8 -43.9,71.5 -68.6,101.8 -24.9,30.2 -51.1,57.9 -77.9,84.8 -107.7,106.4 -223.4,199.6 -341.1,290 -58.9,44.9 -118.5,88.9 -178.8,131.8 -60.4,42.7 -139.2,104.8 -200.6,145.9 l -19.4,-73 c 58.8,-43.9 117.2,-88.4 174.8,-133.7 57.9,-45 115.3,-90.4 171.7,-137 112.5,-93.1 223,-189.5 321,-294 24.2,-26.2 47.6,-52.9 69,-80.1 21.2,-27.1 40.5,-55.5 52.8,-82 5.7,-12.8 9,-25.6 8.8,-31.3 -0.1,-0.7 0,-1.3 0.1,-1.9 0,-0.6 -0.4,-0.4 -0.4,-0.6 -0.1,-0.1 0.1,-0.4 0.1,-0.4 -0.2,0.3 -0.2,0.6 -0.1,0.7 0.4,0.6 0.8,0.7 -0.9,-0.2 -2.2,-2.2 -13.7,-6 -26.7,-7.6 -13.3,-1.8 -28.8,-2 -44.7,-1.2 -32.3,1.7 -66.4,7 -100.6,14.1 -34.1,7.1 -68.6,15.6 -103,25.3 -68.8,19.3 -137.4,42.3 -205.5,67.1 -136.2,49.6 -270.4,107.1 -403.9,166.5 -133.2,59.7 -265.2,123 -396,188.8 -261.3,131.9 -519.4,271 -772.8,418.4 -253.4,147.3 -503.8,299.8 -747.5,462 -243.9,161.4 -483.6,330.5 -706,516.7 -55.3,46.7 -109.3,94.8 -159.8,145 -25.2,25.1 -49.7,50.7 -72.1,77.1 -22.5,26.2 -43.3,53.4 -59.3,80.1 -7.8,13.3 -14.2,26.5 -17.6,37.4 -3.8,11.3 -2.4,17.7 -2.9,16.5 0,-0.2 -0.2,-0.2 -0.4,-0.2 0.2,-0.2 0.2,-0.4 0,-0.4 -0.7,0.1 0.2,0.1 0.3,0.6 0.8,0.8 3.5,2.7 8,4.4 8.9,3.4 22.6,6.1 37.6,7 30.2,2 64.6,-1.2 98.8,-6 34.3,-5 69.1,-12 103.8,-20.3 139.5,-32.7 278.2,-79.9 414.9,-131 68.5,-25.6 136.5,-52.6 204.3,-80.5 67.9,-27.5 125.3,-51.5 192.6,-80.7 l 50.8,50.9"
         style="fill:#5c56b0;fill-opacity:1;fill-rule:nonzero;stroke:none"
         id="path66" /><path
         d="m 39500.9,27688.5 -258,1407.9 c -23.9,130.2 28.9,262.5 135.7,340.6 l 2234.1,1632.3 c 168.6,123.2 407.5,19.9 433.2,-187.3 l 171,-1378.1 c 14.3,-115.9 -30.9,-231.2 -120.3,-306.3 l -2034.7,-1710.9 c -202.5,-170.2 -513.3,-58.4 -561,201.8"
         style="fill:#e6effa;fill-opacity:1;fill-rule:nonzero;stroke:none"
         id="path68" /><path
         d="m 39647,27826.1 -232.5,1268.9 c -21.5,117.3 26,236.5 122.3,306.9 l 2013.3,1471 c 151.9,111.1 367.2,17.9 390.4,-168.8 l 154.1,-1241.9 c 13,-104.5 -27.8,-208.4 -108.4,-276.1 l -1833.7,-1541.8 c -182.4,-153.4 -462.6,-52.7 -505.5,181.8"
         style="fill:#5c56b0;fill-opacity:1;fill-rule:nonzero;stroke:none"
         id="path70" /><path
         d="m 36235.8,27133.7 v 0 c -59.1,523.4 301.2,1001.7 820.6,1089.3 l 2988.6,504.3 c 578.3,97.6 1114.5,-325.1 1154.6,-910.2 l 16.7,-243.3 c 37,-539.5 -365,-1009.2 -903.8,-1056 l -3005.2,-261 c -535.8,-46.5 -1011.1,342.4 -1071.5,876.9"
         style="fill:#746abc;fill-opacity:1;fill-rule:nonzero;stroke:none"
         id="path72" /><path
         d="m 35096,23917.4 -256.6,1620.1 c -27,170.9 42.6,342.8 181,446.7 l 2233.9,1677.1 c 141.2,106 344.4,22.2 369.8,-152.6 l 92.9,-640.7 523.7,372.6 -33.6,-395.5 -445.8,-261 47.8,-650.4 c 11.2,-152.1 -52.6,-300.1 -170.9,-396.5 l -2165.7,-1763.7 c -139,-113.2 -348.5,-33.1 -376.5,143.9"
         style="fill:#e6effa;fill-opacity:1;fill-rule:nonzero;stroke:none"
         id="path74" /><path
         d="m 35258.8,24101.5 -269.3,1469.2 c -21.5,117.3 26,236.6 122.3,306.9 l 2088.1,1525.7 c 118.4,86.5 286.2,14 304.3,-131.6 l 165.5,-1333.8 c 12.9,-104.4 -27.9,-208.3 -108.4,-276 L 35571.7,23989 c -113,-95 -286.4,-32.6 -312.9,112.5"
         style="fill:#5c56b0;fill-opacity:1;fill-rule:nonzero;stroke:none"
         id="path76" /><path
         d="m 41108.7,27719 c 57,-502.8 -246.2,-949.9 -677.2,-998.8 -431,-48.8 -826.5,319.2 -883.5,822 -56.9,502.8 246.3,949.9 677.3,998.8 430.9,48.8 826.5,-319.2 883.4,-822"
         style="fill:#ffffff;fill-opacity:1;fill-rule:nonzero;stroke:none"
         id="path78" /><path
         d="m 15176.3,22127.5 -3562.7,-5386.3 h 3562.7 z M 7796.55,13602.6 v 2926.5 l 6701.15,9585.2 h 4050.4 V 16741.2 H 20287 v -3138.6 h -1738.9 v -2756.7 h -3626.3 v 2756.7 H 7796.55"
         style="fill:#5c56b0;fill-opacity:1;fill-rule:nonzero;stroke:none"
         id="path80" /><path
         d="m 29956.8,22095.7 c -311.2,770.4 -954.3,1155.8 -1929.8,1155.8 -975.5,0 -1619,-385.4 -1929.8,-1155.8 -311.1,-770.7 -466.5,-1869.7 -466.5,-3297.5 0,-961.6 56.3,-1756.8 169.6,-2385.7 113,-629.2 342.6,-1138.2 689.2,-1526.9 346.3,-389 858.9,-583.1 1537.5,-583.1 678.6,0 1190.8,194.1 1537.5,583.1 346.2,388.7 575.8,897.7 689.1,1526.9 113,628.9 169.7,1424.1 169.7,2385.7 0,1427.8 -155.8,2526.8 -466.5,3297.5 z M 23478.3,24545 c 940,1399.7 2456.2,2099.5 4548.7,2099.5 2092.1,0 3608.3,-699.8 4548.7,-2099.5 940,-1399.5 1410.2,-3315.4 1410.2,-5746.8 0,-2459.9 -470.2,-4389.7 -1410.2,-5789.3 -940.4,-1399.6 -2456.6,-2099.4 -4548.7,-2099.4 -2092.5,0 -3608.7,699.8 -4548.7,2099.4 -940.4,1399.6 -1410.3,3329.4 -1410.3,5789.3 0,2431.4 469.9,4347.3 1410.3,5746.8"
         style="fill:#5c56b0;fill-opacity:1;fill-rule:nonzero;stroke:none"
         id="path82" /><path
         d="M 43359,22127.5 39796.2,16741.2 H 43359 Z m -7379.8,-8524.9 v 2926.5 l 6701.1,9585.2 h 4050.4 v -9373.1 h 1739 v -3138.6 h -1739 v -2756.7 h -3626.3 v 2756.7 h -7125.2"
         style="fill:#5c56b0;fill-opacity:1;fill-rule:nonzero;stroke:none"
         id="path84" /><path
         d="m 14549.2,16741 h -3562.5 l 1654,2500.7 1615.2,2442.6 293.3,443.4 z m 3371.9,0 v 9373.5 h -4050.4 l -985.2,-1408.9 -2079.3,-2974.8 -3636.77,-5201.6 v -2926.7 h 7125.27 v -2756.7 h 3626.4 v 2756.7 H 19660 V 16741 h -1738.9"
         style="fill:#ffffff;fill-opacity:1;fill-rule:nonzero;stroke:none"
         id="path86" /><path
         d="m 29626.7,16412.6 c -113.4,-629.4 -343,-1138.3 -689.4,-1527.1 -346.5,-388.8 -858.7,-583.2 -1537.5,-583.2 -678.4,0 -1190.9,194.4 -1537.4,583.2 -346.5,388.8 -576.1,897.7 -689.1,1527.1 -113.4,628.7 -169.6,1424.1 -169.6,2385.4 0,1428 155.4,2526.9 466.3,3297.7 311,770.5 954.3,1155.7 1929.8,1155.7 975.6,0 1618.8,-385.2 1929.8,-1155.7 311,-770.8 466.6,-1869.7 466.6,-3297.7 0,-961.3 -56.5,-1756.7 -169.5,-2385.4 z m 2321.8,8132.5 c -940.3,1399.5 -2456.5,2099.3 -4548.7,2099.3 -2092.2,0 -3608.6,-699.8 -4548.7,-2099.3 C 21910.8,23145.5 21441,21229.6 21441,18798 c 0,-2459.7 469.8,-4389.4 1410.1,-5789 940.1,-1399.9 2456.5,-2099.6 4548.7,-2099.6 2092.2,0 3608.4,699.7 4548.7,2099.6 940,1399.6 1410.5,3329.3 1410.5,5789 0,2431.6 -470.5,4347.5 -1410.5,5747.1"
         style="fill:#ffffff;fill-opacity:1;fill-rule:nonzero;stroke:none"
         id="path88" /><path
         d="M 42731.8,16741 H 39169 l 3562.8,5386.7 z m 3372,0 v 9373.5 h -4050.4 l -6701.3,-9585.3 v -2926.7 h 7125.3 v -2756.7 h 3626.4 v 2756.7 h 1738.9 V 16741 h -1738.9"
         style="fill:#ffffff;fill-opacity:1;fill-rule:nonzero;stroke:none"
         id="path90" /><path
         d="m 28703.7,11012.3 c 0,0 -774.8,2169 -976,2586.8 -201.1,417.7 1170,198.4 1418.2,1286.1 h -4567.2 c 0,0 -913.4,-577.7 0,-1491.1 913.4,-913.4 2353,-2740.3 2353,-2740.3 l 1772,358.5"
         style="fill:#746abc;fill-opacity:1;fill-rule:nonzero;stroke:none"
         id="path92" /><path
         d="m 26572.5,23980.7 c -139.9,358.1 -1497.5,185.1 -1361.2,-890.2 241.6,-1908 -1440,-2348.3 -1387.5,-3680 0,0 550.1,1157.2 1179.9,1477.3 0,0 -960.9,-1270.4 -468.6,-1965.2 386.6,-545.6 1099.2,-476.6 1975.1,-306.4 875.9,170.1 62.3,5364.5 62.3,5364.5"
         style="fill:#1f3653;fill-opacity:1;fill-rule:nonzero;stroke:none"
         id="path94" /><path
         d="m 21370.4,8088.8 2480.3,869.4 c 0,0 -1034.9,4484 -988,5286.7 46.9,802.7 4480.2,858.1 4480.2,858.1 v 2179.8 l -1222.5,-67 -266,-428.5 c 0,0 -5103.8,-79 -5629.7,-1795.1 -525.9,-1716.1 1145.7,-6903.4 1145.7,-6903.4"
         style="fill:#171c2a;fill-opacity:1;fill-rule:nonzero;stroke:none"
         id="path96" /><path
         d="m 25615.2,21146.2 c 494.4,485.2 1797.1,677.9 2590.3,0 522.1,-446.2 73.8,-2668.1 609,-3782.8 l -2694.1,-147.6 c 0,0 -5.6,1013.5 -266,1623.8 -253.9,595.2 -615.1,1937.5 -239.2,2306.6"
         style="fill:#fbc929;fill-opacity:1;fill-rule:nonzero;stroke:none"
         id="path98" /><path
         d="m 26892.8,23350.8 c 0,0 77.3,-1218.1 303.4,-1864 -282.1,-246 -648.2,-332.7 -902.8,-172.2 0,0 96.8,710.4 -64.6,1194.8 l 664,841.4"
         style="fill:#da7e76;fill-opacity:1;fill-rule:nonzero;stroke:none"
         id="path100" /><path
         d="m 26519.4,23865.7 c -355.2,96.8 -711,-98.5 -807.3,-387.6 -96.9,-290.6 69.1,-1064 226,-1194.8 193.8,-161.4 742.8,-96.8 936.5,484.4 114.2,342.5 18.7,996 -355.2,1098"
         style="fill:#da7e76;fill-opacity:1;fill-rule:nonzero;stroke:none"
         id="path102" /><path
         d="m 26911,23091.2 -33,2 c 5.5,89.4 -15.6,155.5 -62.7,196.5 -82.5,71.8 -219.7,45.1 -221.1,44.9 l -161.4,-0.4 v 33.1 h 156.5 c 17.9,3.4 157,26.2 247.5,-52.6 55.4,-48.1 80.3,-123.3 74.2,-223.5"
         style="fill:#ffffff;fill-opacity:1;fill-rule:nonzero;stroke:none"
         id="path104" /><path
         d="m 25674.6,23321.7 c -126.5,0 -229.5,-102.9 -229.5,-229.5 0,-126.6 103,-229.5 229.5,-229.5 126.6,0 229.5,102.9 229.5,229.5 0,126.6 -102.9,229.5 -229.5,229.5 z m 0,-492.1 c -144.8,0 -262.6,117.8 -262.6,262.6 0,144.8 117.8,262.6 262.6,262.6 144.8,0 262.6,-117.8 262.6,-262.6 0,-144.8 -117.8,-262.6 -262.6,-262.6"
         style="fill:#ffffff;fill-opacity:1;fill-rule:nonzero;stroke:none"
         id="path106" /><path
         d="m 26242.2,23424.7 c -126.5,0 -229.5,-102.9 -229.5,-229.5 0,-126.6 103,-229.5 229.5,-229.5 126.6,0 229.5,102.9 229.5,229.5 0,126.6 -102.9,229.5 -229.5,229.5 z m 0,-492.1 c -144.8,0 -262.6,117.8 -262.6,262.6 0,144.8 117.8,262.6 262.6,262.6 144.8,0 262.6,-117.8 262.6,-262.6 0,-144.8 -117.8,-262.6 -262.6,-262.6"
         style="fill:#ffffff;fill-opacity:1;fill-rule:nonzero;stroke:none"
         id="path108" /><path
         d="m 25857.4,23243.5 -6,32.5 174.1,32.3 6,-32.5 -174.1,-32.3"
         style="fill:#ffffff;fill-opacity:1;fill-rule:nonzero;stroke:none"
         id="path110" /><path
         d="m 27608.8,21477.7 c 917.2,-145.8 2423.5,-760.5 2423.5,-760.5 l -1937.5,2052.8 479.8,586.3 c 0,0 3081.6,-2041.7 2675.6,-3318.1 -272.6,-857.1 -2657.2,-167 -3044.7,0 -387.5,166.9 -596.7,1439.5 -596.7,1439.5"
         style="fill:#fbc929;fill-opacity:1;fill-rule:nonzero;stroke:none"
         id="path112" /><path
         d="m 22862.7,19138.8 669.3,163.9 447.9,-947 c 544.6,1030.8 1005.6,2311.2 1635.3,2790.5 l 239.2,-1771.5 c 0,0 -1173.3,-2196.3 -1948.4,-2233.2 -775,-36.9 -1043.3,1997.3 -1043.3,1997.3"
         style="fill:#fbc929;fill-opacity:1;fill-rule:nonzero;stroke:none"
         id="path114" /><path
         d="m 25469.9,23395.1 c 0,0 687.4,982.9 1049.5,470.6 0,0 225.7,213.8 472.9,25 761.1,-581.2 320.1,-2813.7 2700.5,-2813.7 0,0 -621.3,-581.1 -1395,-359.8 -716.5,204.8 -1437.2,769.6 -1393.7,1945 14.9,402.7 -57.8,688.6 -185.5,688.6 -127.7,0 -349.1,374.2 -349.1,374.2 0,0 -525.9,-355.3 -899.6,-329.9"
         style="fill:#1f3653;fill-opacity:1;fill-rule:nonzero;stroke:none"
         id="path116" /><path
         d="m 26148,8377 1743.8,2075.9 -2804.1,3784.7 c 0,0 2785.7,-158.8 3726.8,256.4 941,415.2 645.8,2140.5 0,2869.4 l -2694.1,-147.6 v -424.4 c 0,0 -4345.6,27.6 -4733.1,-1660.8 C 21041.1,13622.5 26148,8377 26148,8377"
         style="fill:#1f3653;fill-opacity:1;fill-rule:nonzero;stroke:none"
         id="path118" /><path
         d="m 27727.7,10257.5 c 0,0 717.7,-690.3 717.7,-856.4 0,-166.1 -1132,-1882.2 -1353.5,-2020.6 -221.4,-138.4 85.8,1832.1 0,2120.1 l 635.8,756.9"
         style="fill:#ef322e;fill-opacity:1;fill-rule:nonzero;stroke:none"
         id="path120" /><path
         d="m 23196.9,8750.9 c 0,0 296.6,-918.3 216.7,-1063.8 -80,-145.6 -1898.4,-1104.7 -2159.1,-1119.4 -260.7,-14.6 957.3,1564.5 1020.7,1858.2 l 921.7,325"
         style="fill:#ef322e;fill-opacity:1;fill-rule:nonzero;stroke:none"
         id="path122" /><path
         d="m 28522,23292.1 c 0,0 -805.5,721.5 -913.2,598.6 -43,-49 283,-258.8 283,-258.8 0,0 -572,254.5 -636.6,208.4 -64.6,-46.1 560.2,-313.7 560.2,-313.7 0,0 -597.1,179.9 -643.2,113 -46.2,-66.9 535.1,-283.3 535.1,-283.3 0,0 -442.9,87.3 -498.2,41.1 -55.4,-46.1 562.8,-147.6 682.7,-267.5 120,-120 -452.1,31.6 -442.8,-81.1 9.2,-112.7 560.8,-74.2 737.1,-167.2 l 335.9,410.5"
         style="fill:#da7e76;fill-opacity:1;fill-rule:nonzero;stroke:none"
         id="path124" /><path
         d="m 24062.1,19799.7 -481.1,-211.1 c -55.5,-24.3 -120.5,-3.4 -151.4,48.8 l -586.6,993.3 c -36.6,61.8 -10.8,141.8 55,170.6 l 481.1,211.1 c 55.6,24.4 120.5,3.5 151.4,-48.7 l 586.6,-993.3 c 36.6,-61.9 10.8,-141.8 -55,-170.7"
         style="fill:#171c2a;fill-opacity:1;fill-rule:nonzero;stroke:none"
         id="path126" /><path
         d="m 23981,19869.5 -414.1,-181.7 c -47.8,-21 -103.7,-3 -130.2,42 l -505,854.9 c -31.5,53.3 -9.3,122 47.4,146.9 l 414.1,181.7 c 47.8,21 103.7,3 130.3,-42 l 504.9,-854.9 c 31.5,-53.3 9.3,-122.1 -47.4,-146.9"
         style="fill:#f9fcfe;fill-opacity:1;fill-rule:nonzero;stroke:none"
         id="path128" /><path
         d="m 23012.3,19180.8 c 0,0 -216.5,1038.3 35,1436.2 196.9,311.6 0,-509.5 0,-509.5 0,0 256.2,694 364.4,603.6 78.8,-65.9 -256.8,-672.5 -256.8,-672.5 0,0 406.9,731.5 480.8,598.3 45.6,-82.2 -361.2,-685.4 -361.2,-685.4 0,0 356.2,416.2 403.5,341.4 44.4,-70 -385.5,-317.6 -195.7,-997 l -470,-115.1"
         style="fill:#da7e76;fill-opacity:1;fill-rule:nonzero;stroke:none"
         id="path130" /><path
         d="m 26770,23195.2 c 0,0 56.2,148.4 249.9,96.9 193.8,-51.5 -41.5,-480.6 -179.9,-446"
         style="fill:#da7e76;fill-opacity:1;fill-rule:nonzero;stroke:none"
         id="path132" /><path
         d="m 27147.9,7650.8 -28.4,17 1062.6,1769.5 28.4,-17.1 -1062.6,-1769.4"
         style="fill:#ffffff;fill-opacity:1;fill-rule:nonzero;stroke:none"
         id="path134" /><path
         d="m 21378.2,6812.3 -15.5,29.2 1933,1024.1 15.5,-29.2 -1933,-1024.1"
         style="fill:#ffffff;fill-opacity:1;fill-rule:nonzero;stroke:none"
         id="path136" /><path
         d="m 27121.2,9971.5 c -163.8,189.1 -4006.7,4638.1 -3655.1,5195.6 87,138.1 962.3,179.5 2393.4,231.2 1128.5,40.7 2295.5,82.9 2578.8,217.8 560.2,266.8 -2.3,1579.8 -8.1,1593.1 l 30.4,13.2 c 24,-55.3 580.8,-1355.7 -8.1,-1636.1 -289.5,-137.9 -1459.9,-180.2 -2591.8,-221.1 -1122.2,-40.5 -2282.6,-82.4 -2366.7,-215.7 -338.5,-537 3612.2,-5110.2 3652.2,-5156.4 l -25,-21.6"
         style="fill:#ffffff;fill-opacity:1;fill-rule:nonzero;stroke:none"
         id="path138" /><path
         d="m 25738.7,19143.6 -369.3,1156.9 v -1757.8 z"
         style="fill:#d7a215;fill-opacity:1;fill-rule:nonzero;stroke:none"
         id="path140" /><path
         d="m 28522,19928.2 -777.8,461.4 763.8,-989.1 z"
         style="fill:#d7a215;fill-opacity:1;fill-rule:nonzero;stroke:none"
         id="path142" /><path
         d="m 23979.9,18355.7 299.8,-623.2 -102.4,1012.7 z"
         style="fill:#d7a215;fill-opacity:1;fill-rule:nonzero;stroke:none"
         id="path144" /><path
         d="m 30032.3,20717.2 738.1,-822.1 -1178.3,992.7 z"
         style="fill:#d7a215;fill-opacity:1;fill-rule:nonzero;stroke:none"
         id="path146" /><path
         d="m 27091.9,9500.6 635.8,756.9 192.5,-191.7 -828.3,-1250.3 v 685.1"
         style="fill:#e12124;fill-opacity:1;fill-rule:nonzero;stroke:none"
         id="path148" /><path
         d="m 22275.2,8425.9 921.7,325 97.1,-325 -1343.2,-574.9 324.4,574.9"
         style="fill:#e12124;fill-opacity:1;fill-rule:nonzero;stroke:none"
         id="path150" /><path
         d="m 14255.9,21684.3 -1615.2,-2442.6 c -683.6,867.1 -1351.8,1789 -1834.5,2489.1 l 2079.3,2974.8 c 93.3,-94 173.7,-202.5 237,-324.6 144.7,-278 631,-1394.7 1133.4,-2696.7"
         style="fill:#746abc;fill-opacity:1;fill-rule:nonzero;stroke:none"
         id="path152" /><path
         d="m 15425.9,16659.6 c -172.4,-89.4 -485.7,90.5 -876.7,438.6 v 3809.2 c 715.2,-1944.7 1332.3,-4011.1 876.7,-4247.8"
         style="fill:#746abc;fill-opacity:1;fill-rule:nonzero;stroke:none"
         id="path154" /><path
         d="m 26049.5,21774.6 c -50.4,-22.2 -90.6,-63.8 -111,-115.2 -20.5,51.4 -60.5,93 -110.9,115.2 50.4,22.3 90.4,63.9 110.9,115.4 20.4,-51.5 60.6,-93.1 111,-115.4"
         style="fill:#ffffff;fill-opacity:1;fill-rule:nonzero;stroke:none"
         id="path156" /><path
         d="m 35075.7,17499.6 c -50.5,-22.2 -90.6,-63.8 -111.1,-115.2 -20.4,51.4 -60.5,93 -110.9,115.2 50.4,22.4 90.5,63.9 110.9,115.4 20.5,-51.5 60.6,-93 111.1,-115.4"
         style="fill:#ffffff;fill-opacity:1;fill-rule:nonzero;stroke:none"
         id="path158" /><path
         d="m 23858.1,16464.6 c -50.4,-22.3 -90.5,-63.8 -111,-115.2 -20.4,51.4 -60.5,92.9 -110.9,115.2 50.4,22.3 90.5,63.8 110.9,115.3 20.5,-51.5 60.6,-93 111,-115.3"
         style="fill:#ffffff;fill-opacity:1;fill-rule:nonzero;stroke:none"
         id="path160" /><path
         d="m 31042.9,19785.2 c -50.5,-22.2 -90.6,-63.8 -111.1,-115.2 -20.4,51.4 -60.4,93 -110.9,115.2 50.5,22.3 90.5,63.9 110.9,115.4 20.5,-51.5 60.6,-93.1 111.1,-115.4"
         style="fill:#ffffff;fill-opacity:1;fill-rule:nonzero;stroke:none"
         id="path162" /><path
         d="m 31905.3,16845.1 c -102.9,-45.4 -184.7,-130.1 -226.4,-234.9 -41.7,104.8 -123.3,189.5 -226.2,234.9 102.9,45.5 184.5,130.2 226.2,235.2 41.7,-105 123.5,-189.7 226.4,-235.2"
         style="fill:#ffffff;fill-opacity:1;fill-rule:nonzero;stroke:none"
         id="path164" /><path
         d="m 26455.7,20316.3 c -102.9,-45.4 -184.7,-130.1 -226.4,-234.9 -41.7,104.8 -123.3,189.5 -226.2,234.9 102.9,45.5 184.5,130.2 226.2,235.2 41.7,-105 123.5,-189.7 226.4,-235.2"
         style="fill:#ffffff;fill-opacity:1;fill-rule:nonzero;stroke:none"
         id="path166" /><path
         d="m 22948.6,19959.9 c -75.1,-33.1 -134.7,-94.9 -165.2,-171.3 -30.4,76.4 -89.9,138.2 -164.9,171.3 75,33.2 134.5,95 164.9,171.6 30.5,-76.6 90.1,-138.4 165.2,-171.6"
         style="fill:#ffffff;fill-opacity:1;fill-rule:nonzero;stroke:none"
         id="path168" /><path
         d="m 34747.5,20396.3 c -102.9,-45.3 -184.7,-130 -226.4,-234.8 -41.6,104.8 -123.3,189.5 -226.1,234.8 102.8,45.6 184.5,130.3 226.1,235.3 41.7,-105 123.5,-189.7 226.4,-235.3"
         style="fill:#ffffff;fill-opacity:1;fill-rule:nonzero;stroke:none"
         id="path170" /></g></g></svg>
