<svg width="24px" height="24px" viewBox="0 0 512 512" xmlns="http://www.w3.org/2000/svg" xmlns:xlink="http://www.w3.org/1999/xlink" aria-hidden="true" role="img" class="iconify iconify--fxemoji" preserveAspectRatio="xMidYMid meet"><path fill="#D19B61" d="M402.634 505.687H109.366c-19.882 0-36-16.118-36-36V93.822c0-19.882 16.118-36 36-36h293.267c19.882 0 36 16.118 36 36v375.864c.001 19.883-16.117 36.001-35.999 36.001z"></path><path fill="#F9F9F7" d="M386.152 463.673H125.848c-7.953 0-14.4-6.447-14.4-14.4V102.306c0-7.953 6.447-14.4 14.4-14.4h260.305c7.953 0 14.4 6.447 14.4 14.4v346.967c-.001 7.953-6.448 14.4-14.401 14.4z"></path><path fill="#A9B8C2" d="M340.027 200.306H153.508a7.772 7.772 0 1 1 0-15.544h186.519a7.772 7.772 0 1 1 0 15.544zm-76.255 36.065a7.772 7.772 0 0 0-7.772-7.772H153.508a7.772 7.772 0 1 0 0 15.544H256a7.772 7.772 0 0 0 7.772-7.772zm0-88.016a7.772 7.772 0 0 0-7.772-7.772H153.508a7.772 7.772 0 1 0 0 15.544H256a7.772 7.772 0 0 0 7.772-7.772zM347.8 280.208a7.772 7.772 0 0 0-7.772-7.772h-186.52a7.772 7.772 0 0 0 0 15.544h186.519a7.773 7.773 0 0 0 7.773-7.772zm-55.956 43.838a7.772 7.772 0 0 0-7.772-7.772H153.508a7.772 7.772 0 0 0 0 15.544h130.563a7.773 7.773 0 0 0 7.773-7.772zm55.956 43.837a7.772 7.772 0 0 0-7.772-7.772h-186.52a7.772 7.772 0 0 0 0 15.544h186.519a7.773 7.773 0 0 0 7.773-7.772zM226.562 411.72a7.772 7.772 0 0 0-7.772-7.772h-65.282a7.772 7.772 0 0 0 0 15.544h65.282a7.772 7.772 0 0 0 7.772-7.772z"></path><path fill="#B9C5C6" d="M307.042 35.654h-15.388C291.654 15.963 275.691 0 256 0s-35.654 15.963-35.654 35.654h-15.388c-19.882 0-36 16.118-36 36v36.98a7.2 7.2 0 0 0 7.2 7.2h159.685a7.2 7.2 0 0 0 7.2-7.2v-36.98c-.001-19.882-16.118-36-36.001-36z"></path><circle fill="#2B3B47" cx="256" cy="35.654" r="23.41"></circle></svg>